<mxfile host="app.diagrams.net" modified="2023-09-22T06:01:12.932Z" agent="Mozilla/5.0 (Windows NT 10.0; Win64; x64) AppleWebKit/537.36 (KHTML, like Gecko) Chrome/116.0.0.0 Safari/537.36" version="21.8.0" etag="y4H3slJ8y93KsnqBUoqS" type="github">
  <diagram name="Страница — 1" id="5qrfa8oa9lLR12GpBpNG">
    <mxGraphModel>
      <root>
        <mxCell id="0" />
        <mxCell id="1" parent="0" />
      </root>
    </mxGraphModel>
  </diagram>
</mxfile>
